<?xml version="1.0" encoding="UTF-8" standalone="no"?>
<!-- Created with Inkscape (http://www.inkscape.org/) -->

<svg
   xmlns:dc="http://purl.org/dc/elements/1.1/"
   xmlns:cc="http://creativecommons.org/ns#"
   xmlns:rdf="http://www.w3.org/1999/02/22-rdf-syntax-ns#"
   xmlns:svg="http://www.w3.org/2000/svg"
   xmlns="http://www.w3.org/2000/svg"
   xmlns:sodipodi="http://sodipodi.sourceforge.net/DTD/sodipodi-0.dtd"
   xmlns:inkscape="http://www.inkscape.org/namespaces/inkscape"
   width="210mm"
   height="297mm"
   viewBox="0 0 210 297"
   version="1.1"
   id="svg1071"
   inkscape:version="0.92.5 (2060ec1f9f, 2020-04-08)"
   sodipodi:docname="hummingbird.svg">
  <defs
     id="defs1065" />
  <sodipodi:namedview
     id="base"
     pagecolor="#ffffff"
     bordercolor="#666666"
     borderopacity="1.0"
     inkscape:pageopacity="0.0"
     inkscape:pageshadow="2"
     inkscape:zoom="0.24748737"
     inkscape:cx="-246.2185"
     inkscape:cy="340.37869"
     inkscape:document-units="mm"
     inkscape:current-layer="layer1"
     showgrid="false"
     inkscape:window-width="1366"
     inkscape:window-height="704"
     inkscape:window-x="0"
     inkscape:window-y="27"
     inkscape:window-maximized="1" />
  <metadata
     id="metadata1068">
    <rdf:RDF>
      <cc:Work
         rdf:about="">
        <dc:format>image/svg+xml</dc:format>
        <dc:type
           rdf:resource="http://purl.org/dc/dcmitype/StillImage" />
        <dc:title></dc:title>
      </cc:Work>
    </rdf:RDF>
  </metadata>
  <g
     inkscape:label="Calque 1"
     inkscape:groupmode="layer"
     id="layer1">
    <g
       id="g222"
       transform="matrix(0.62696553,0,0,-0.62696553,82.197013,234.70729)">
      <path
         d="m 0,0 c 0,0 -19.741,11.845 -22.529,11.845 0,0 -95.111,79.707 -105.503,78.756 0,0 6.33,-9.777 27.466,-25.105 0,0 -19.974,13.471 -21.369,11.612 -1.393,-1.858 20.671,-18.116 20.671,-18.116 0,0 -13.934,8.362 -14.632,7.2 -0.697,-1.161 26.709,-20.887 26.709,-20.887 0,0 -18.347,10.203 -19.044,8.578 -0.697,-1.626 19.974,-16.026 19.974,-16.026 0,0 -13.704,7.664 -14.632,6.039 -0.929,-1.626 21.6,-16.257 21.6,-16.257 0,0 -12.311,6.269 -12.775,4.412 -0.464,-1.858 20.207,-14.401 20.207,-14.401 0,0 -13.935,6.737 -13.935,4.878 0,-1.858 14.167,-10.683 14.167,-10.683 0,0 -6.039,0.464 -5.343,-2.556 C -78.27,6.271 -65.729,0 -65.729,0 c 0,0 -4.876,0.156 -3.483,-2.941 1.394,-3.098 21.6,-8.672 21.6,-8.672 0,0 -11.846,-0.464 -10.451,-3.948 1.392,-3.484 28.334,-5.111 28.334,-5.111 0,0 -17.419,-6.967 -16.491,-8.36 0.93,-1.394 16.027,3.948 16.027,3.948 0,0 -12.078,-6.27 -11.149,-7.896 0.93,-1.626 16.723,5.109 16.723,5.109 0,0 -13.006,-8.361 -11.613,-10.451 1.393,-2.09 9.058,3.483 9.058,3.483 l -6.27,-12.542 c 0,0 -14.401,-18.812 -59.226,-43.431 0,0 -6.504,-3.251 2.555,-1.626 9.057,1.626 18.58,8.826 18.58,8.826 0,0 -12.774,-9.057 -11.612,-10.219 1.16,-1.162 19.13,9.521 19.13,9.521 0,0 -8.679,-9.193 -6.588,-10.683 2.089,-1.49 17.418,10.451 17.418,10.451 0,0 -8.129,-10.877 -3.251,-11.941 4.877,-1.065 12.309,11.711 12.309,11.711 0,0 -2.556,-11.711 1.162,-11.711 3.715,0 9.058,13.8 9.058,13.8 0,0 0.465,-12.543 4.412,-12.31 3.948,0.232 5.11,13.935 5.11,13.935 0,0 5.11,-12.773 8.594,-12.541 3.483,0.233 0.465,14.399 0.465,14.399 0,0 7.895,-12.541 11.147,-10.682 3.251,1.858 -11.844,33.212 -11.381,37.159 0.465,3.95 12.078,4.182 19.045,6.737 l 1.18,-1.377 c 0,0 -1.958,-1.389 -1.011,-3.285 0,0 0.063,2.843 1.517,2.337 1.453,-0.505 4.422,-3.347 2.4,-4.611 0,0 -0.632,-0.316 -1.389,0.252 0,0 0.126,-0.947 1.136,-1.01 0,0 -1.075,-0.633 -2.337,0.442 0,0 1.769,-2.717 4.738,0.316 2.97,3.033 -1.958,4.738 -3.537,5.559 l 0.378,0.947 c 0,0 2.119,0.443 4.092,1.518 l -0.078,-0.309 c -0.429,-1.082 0.126,-1.862 1.085,-2.451 -0.336,0.395 -1.026,1.461 -0.617,2.004 0.655,0.869 1.969,-0.329 2.355,-0.884 0.419,-0.606 1.019,-1.959 0.57,-2.672 -0.473,-0.755 -1.365,-0.39 -1.903,0.056 0.322,-0.424 0.652,-0.848 1.174,-1.037 -0.507,-0.09 -1.21,0.058 -1.587,0.421 0.773,-0.659 1.768,-1.19 2.805,-0.863 1.489,0.471 1.928,1.957 1.565,3.365 -0.334,1.301 -1.674,1.84 -2.246,2.938 -0.308,0.592 0.105,1.065 0.495,1.516 0.536,0.62 0.977,1.194 1.451,1.895 0,0 4.802,6.382 7.708,7.898 2.906,1.516 8.023,8.465 8.718,13.078 0.695,4.611 6.949,12.951 7.897,13.455 0.947,0.506 15.731,0.695 18.575,1.011 0,0 40.581,-30.869 51.007,-41.595 L 62.52,-0.594 c 0,0 -4.844,22.488 -22.103,23.729 -11.045,0.793 -14.626,-2.602 -14.626,-2.602 0,0 -21.576,53.711 -24.829,51.813 -1.602,-0.933 4.401,-14.138 4.401,-14.138 0,0 -4.401,7.47 -5.335,6.669 -0.933,-0.801 3.201,-10.271 3.201,-10.271 0,0 -2.801,4.136 -3.601,3.602 -0.801,-0.534 4.134,-12.138 4.134,-12.138 0,0 -3.868,5.469 -4.534,4.801 -0.667,-0.666 3.735,-9.869 3.735,-9.869 0,0 -3.735,4.135 -4.402,3.334 -0.667,-0.801 4.535,-10.805 4.535,-10.805 0,0 -3.068,4.002 -3.736,3.336 -0.667,-0.668 4.536,-10.937 4.536,-10.937 0,0 -3.869,5.334 -4.668,4.4 -0.801,-0.933 3.201,-8.67 3.201,-8.67 0,0 -3.068,0.801 -3.334,-2.133 -0.268,-2.935 3.2,-6.67 3.2,-6.67 0,0 -1.867,0.133 -2,-2.267 C 0.161,8.189 4.296,3.654 4.296,3.654 Z"
         style="fill:#231f20;fill-opacity:1;fill-rule:nonzero;stroke:none"
         id="path224"
         inkscape:connector-curvature="0" />
    </g>
  </g>
</svg>
